<?xml version="1.0" encoding="utf-8"?>
<!-- Generator: Adobe Illustrator 22.1.0, SVG Export Plug-In . SVG Version: 6.00 Build 0)  -->
<svg version="1.1" id="Ebene_1" xmlns="http://www.w3.org/2000/svg" xmlns:xlink="http://www.w3.org/1999/xlink" x="0px" y="0px"
	 viewBox="0 0 225.3 117.3" style="enable-background:new 0 0 225.3 117.3;" xml:space="preserve">
<style type="text/css">
	.st0{clip-path:url(#SVGID_2_);}
	.st1{fill:#F0C94D;}
	.st2{fill:none;stroke:#F0C94D;stroke-width:2.327;}
	.st3{clip-path:url(#SVGID_4_);}
	.st4{clip-path:url(#SVGID_6_);}
	.st5{clip-path:url(#SVGID_8_);}
	.st6{clip-path:url(#SVGID_10_);}
	.st7{clip-path:url(#SVGID_12_);}
	.st8{fill:#3A3042;}
</style>
<g>
	<defs>
		<rect id="SVGID_1_" x="11.3" y="6.7" width="221.6" height="103.5"/>
	</defs>
	<clipPath id="SVGID_2_">
		<use xlink:href="#SVGID_1_"  style="overflow:visible;"/>
	</clipPath>
	<g class="st0">
		<g>
			<g>
				<path class="st1" d="M53.6,104.7c-0.3,0-0.6-0.1-0.8-0.2L12.1,80.7c-0.6-0.3-0.8-0.9-0.8-1.3V31.9c0-0.7,0.4-1.1,0.8-1.3
					L52.8,6.9c0.6-0.3,1.2-0.2,1.5,0l40.7,23.7c0.6,0.3,0.8,0.9,0.8,1.3v47.5c0,0.6-0.4,1.1-0.8,1.3l0,0l-40.7,23.7
					C54.1,104.6,53.9,104.7,53.6,104.7z M13.7,79l39.9,23.3L93.6,79V32.4L53.6,9.1L13.7,32.4V79z M93.9,32.6
					C94,32.6,94,32.6,93.9,32.6L93.9,32.6z M13.3,32.6L13.3,32.6C13.3,32.6,13.3,32.6,13.3,32.6z M54,8.9L54,8.9
					C54,8.9,54,8.9,54,8.9z"/>
			</g>
		</g>
	</g>
</g>
<g>
	<g>
		<path class="st2" d="M45.9,13.4"/>
	</g>
</g>
<g>
	<defs>
		<rect id="SVGID_3_" x="11.3" y="6.7" width="221.6" height="103.5"/>
	</defs>
	<clipPath id="SVGID_4_">
		<use xlink:href="#SVGID_3_"  style="overflow:visible;"/>
	</clipPath>
	<g class="st3">
		<g>
			<g>
				<path class="st2" d="M13,32.2"/>
			</g>
		</g>
	</g>
</g>
<g>
	<g>
		<polygon class="st1" points="67.1,55.9 64.9,55.1 69.1,42.6 63.3,24.3 65.5,23.6 71.5,42.6 		"/>
	</g>
</g>
<g>
	<defs>
		<rect id="SVGID_5_" x="11.3" y="6.7" width="221.6" height="103.5"/>
	</defs>
	<clipPath id="SVGID_6_">
		<use xlink:href="#SVGID_5_"  style="overflow:visible;"/>
	</clipPath>
	<g class="st4">
		<g>
			<g>
				
					<rect x="14.1" y="57.9" transform="matrix(0.1741 -0.9847 0.9847 0.1741 -47.5798 65.4749)" class="st1" width="2.3" height="6.4"/>
			</g>
		</g>
	</g>
</g>
<g>
	<g>
		<path class="st2" d="M32,28.2"/>
	</g>
</g>
<g>
	<defs>
		<rect id="SVGID_7_" x="11.3" y="6.7" width="221.6" height="103.5"/>
	</defs>
	<clipPath id="SVGID_8_">
		<use xlink:href="#SVGID_7_"  style="overflow:visible;"/>
	</clipPath>
	<g class="st5">
		<g>
			<g>
				
					<rect x="17.9" y="31.5" transform="matrix(0.626 -0.7798 0.7798 0.626 -24.0883 29.8599)" class="st1" width="2.3" height="17.1"/>
			</g>
		</g>
	</g>
</g>
<g>
	<g>
		<path class="st2" d="M48.5,83.6"/>
	</g>
</g>
<g>
	<g>
		
			<rect x="43.4" y="82.4" transform="matrix(0.9369 -0.3497 0.3497 0.9369 -25.2067 27.5564)" class="st1" width="40.6" height="2.3"/>
	</g>
</g>
<g>
	<g>
		<rect x="56.1" y="19.2" transform="matrix(0.532 -0.8467 0.8467 0.532 -2.2974 64.5734)" class="st1" width="2.3" height="30.3"/>
	</g>
</g>
<g>
	<g>
		<path class="st2" d="M65.4,55.7"/>
	</g>
</g>
<g>
	<g>
		<path class="st2" d="M61.5,91.2"/>
	</g>
</g>
<g>
	<g>
		
			<rect x="37.5" y="89" transform="matrix(0.4037 -0.9149 0.9149 0.4037 -55.2779 95.4317)" class="st1" width="16.2" height="2.3"/>
	</g>
</g>
<g>
	<g>
		<polygon class="st1" points="48.5,84.9 34.4,74.2 35.8,72.3 48.6,82.1 66.5,70.4 67.8,72.3 		"/>
	</g>
</g>
<g>
	<g>
		
			<rect x="85.5" y="49.7" transform="matrix(0.1949 -0.9808 0.9808 0.1949 13.9538 130.8095)" class="st1" width="2.3" height="14.3"/>
	</g>
</g>
<g>
	<g>
		
			<rect x="80.8" y="55.6" transform="matrix(0.9888 -0.1495 0.1495 0.9888 -8.9803 12.992)" class="st1" width="2.3" height="21.3"/>
	</g>
</g>
<g>
	<defs>
		<rect id="SVGID_9_" x="11.3" y="6.7" width="221.6" height="103.5"/>
	</defs>
	<clipPath id="SVGID_10_">
		<use xlink:href="#SVGID_9_"  style="overflow:visible;"/>
	</clipPath>
	<g class="st6">
		<g>
			<g>
				<path class="st1" d="M83.2,77.2v-2.3c-0.3,0-0.5,0.1-0.5,0.1c0.9-0.6,7.1-7.4,11.1-12l1.7,1.5C84.4,77.2,83.8,77.2,83.2,77.2z"
					/>
			</g>
		</g>
	</g>
</g>
<g>
	<g>
		
			<rect x="18.5" y="57.9" transform="matrix(0.9749 -0.2227 0.2227 0.9749 -12.3946 8.3288)" class="st1" width="24.4" height="2.3"/>
	</g>
</g>
<g>
	<g>
		<path class="st2" d="M55.6,37.5"/>
	</g>
</g>
<g>
	<g>
		<rect x="62.5" y="20.3" transform="matrix(0.6047 -0.7965 0.7965 0.6047 9.5588 62.1701)" class="st1" width="9.8" height="2.3"/>
	</g>
</g>
<g>
	<g>
		<rect x="50.8" y="6.9" transform="matrix(0.3512 -0.9363 0.9363 0.3512 14.3682 62.039)" class="st1" width="2.3" height="27.5"/>
	</g>
</g>
<g>
	<defs>
		<rect id="SVGID_11_" x="11.3" y="6.7" width="221.6" height="103.5"/>
	</defs>
	<clipPath id="SVGID_12_">
		<use xlink:href="#SVGID_11_"  style="overflow:visible;"/>
	</clipPath>
	<g class="st7">
		<g>
			<g>
				<polygon class="st1" points="13.1,49 12.7,46.8 25.2,44.1 37.5,40.8 38.1,43.1 25.7,46.4 				"/>
			</g>
		</g>
	</g>
</g>
<g>
	<g>
		<polygon class="st1" points="36,75.2 17.9,62.4 19.2,60.5 34.9,71.7 44.2,49.2 46.3,50.1 		"/>
	</g>
</g>
<g>
	<g>
		
			<rect x="69.1" y="36.1" transform="matrix(0.9154 -0.4025 0.4025 0.9154 -8.0417 36.2744)" class="st1" width="26.3" height="2.3"/>
	</g>
</g>
<g>
	<g>
		<polygon class="st1" points="53.5,57.5 53.5,55.2 79.4,54.7 93.6,39.8 95.3,41.4 80.4,57.1 		"/>
	</g>
</g>
<g>
	<g>
		<polygon class="st1" points="18.8,84.1 17.1,61.1 31.6,42.5 33.5,43.9 19.5,61.9 21.1,83.9 		"/>
	</g>
</g>
<g>
	<g>
		<path class="st2" d="M94.7,34.3"/>
	</g>
</g>
<g>
	<g>
		
			<rect x="84.7" y="74.8" transform="matrix(0.7949 -0.6067 0.6067 0.7949 -30.3961 68.3299)" class="st1" width="2.3" height="8.6"/>
	</g>
</g>
<g>
	<g>
		<rect x="18.9" y="81.8" class="st1" width="29.7" height="2.3"/>
	</g>
</g>
<g>
	<g>
		<polygon class="st1" points="70.8,92.9 65.9,71.3 71.7,55.7 73.9,56.5 68.3,71.5 73.1,92.4 		"/>
	</g>
</g>
<g>
	<g>
		
			<rect x="29.5" y="29.1" transform="matrix(0.3734 -0.9277 0.9277 0.3734 -1.7468 57.9594)" class="st1" width="25.1" height="2.3"/>
	</g>
</g>
<g>
	<g>
		<polygon class="st1" points="49.7,82.8 47.4,82.4 51.9,56.8 36.7,43.3 38.2,41.5 54.4,55.9 		"/>
	</g>
</g>
<g>
	<g>
		
			<rect x="57.5" y="34.7" transform="matrix(0.9986 -5.364900e-02 5.364900e-02 0.9986 -2.3423 3.2097)" class="st1" width="2.3" height="21.1"/>
	</g>
</g>
<g>
	<g>
		
			<rect x="31.9" y="21.2" transform="matrix(0.7572 -0.6532 0.6532 0.7572 -12.0148 29.077)" class="st1" width="2.3" height="19.1"/>
	</g>
</g>
<g>
	<g>
		<g>
			<path class="st8" d="M117.4,31h3.7v19.2h-3.7V31z"/>
		</g>
	</g>
	<g>
		<g>
			<path class="st8" d="M136.7,50.2L129.1,39c-0.2-0.3-0.6-1-0.8-1.5c0.1,0.5,0.1,1,0.1,1.5v11.2h-3.7V31h3.5l7.4,11
				c0.2,0.4,0.6,1,0.8,1.5c-0.1-0.4-0.1-1.1-0.1-1.5V31h3.7v19.2H136.7z"/>
		</g>
	</g>
	<g>
		<g>
			<path class="st8" d="M143.4,31h13.1v3.5h-9.4v4h5.5v3.5h-5.5v4.6h10v3.5h-13.7V31z"/>
		</g>
	</g>
	<g>
		<g>
			<path class="st8" d="M168.5,50.2h-3.7V34.6h-5.5V31H174v3.6h-5.5V50.2z"/>
		</g>
	</g>
	<g>
		<g>
			<path class="st8" d="M186,50.2h-3.7V34.6h-5.5V31h14.6v3.6H186V50.2z"/>
		</g>
	</g>
	<g>
		<g>
			<path class="st8" d="M203.5,50.2h-3.7V34.6h-5.5V31H209v3.6h-5.5V50.2z"/>
		</g>
	</g>
</g>
<g>
	<g>
		<g>
			<path class="st8" d="M116.2,57h1.2v8.2h-1.2V57z"/>
		</g>
	</g>
	<g>
		<g>
			<path class="st8" d="M123.2,61.7c0-1-0.5-1.4-1.2-1.4c-0.7,0-1.3,0.4-1.3,1.4v3.6h-1.2v-6h1.2v0.6c0.4-0.5,0.9-0.7,1.5-0.7
				c1.3,0,2.2,0.7,2.2,2.5v3.6h-1.2V61.7z"/>
		</g>
	</g>
	<g>
		<g>
			<path class="st8" d="M126.6,63.9v-3.6h-0.9v-1.1h0.9v-1.9l1.2-0.6v2.5h1.4v1.1h-1.4v3.3c0,0.4,0.1,0.7,0.6,0.7
				c0.3,0,0.6-0.1,0.9-0.3l-0.2,1.1c-0.3,0.2-0.7,0.3-1.2,0.3C127,65.4,126.6,64.8,126.6,63.9z"/>
		</g>
	</g>
	<g>
		<g>
			<path class="st8" d="M130.4,62.2c0-2,1.1-3.1,2.7-3.1c1.4,0,2.6,0.9,2.6,2.8c0,0.3,0,0.6,0,0.8h-4c0,1,0.7,1.6,1.5,1.6
				c0.5,0,0.9-0.2,1.2-0.6l0.8,0.8c-0.4,0.5-1.1,0.9-2,0.9C131.4,65.4,130.4,64.2,130.4,62.2z M134.4,61.7c0-1.1-0.7-1.5-1.4-1.5
				c-0.8,0-1.4,0.4-1.5,1.5H134.4z"/>
		</g>
	</g>
	<g>
		<g>
			<path class="st8" d="M137.2,59.2h1.2V60c0.3-0.6,0.7-0.9,1.3-0.9c0.4,0,0.7,0.1,1,0.4l-0.2,1.1c-0.2-0.2-0.5-0.3-0.9-0.3
				c-0.5,0-1.2,0.3-1.2,1.6v3.4h-1.2V59.2z"/>
		</g>
	</g>
	<g>
		<g>
			<path class="st8" d="M145.6,61.7c0-1-0.5-1.4-1.2-1.4c-0.7,0-1.3,0.4-1.3,1.4v3.6h-1.2v-6h1.2v0.6c0.4-0.5,0.9-0.7,1.5-0.7
				c1.3,0,2.2,0.7,2.2,2.5v3.6h-1.2V61.7z"/>
		</g>
	</g>
	<g>
		<g>
			<path class="st8" d="M152.1,64.7c-0.3,0.3-0.8,0.7-1.6,0.7c-1.2,0-2.1-0.7-2.1-2c0-1.4,1.1-2,2.3-2c0.5,0,1.1,0.1,1.5,0.4v-0.3
				c0-0.9-0.4-1.2-1.3-1.2c-0.7,0-1.3,0.2-1.7,0.5l-0.4-1c0.5-0.3,1.3-0.6,2.2-0.6c1,0,2.3,0.3,2.3,2.2v3.9h-1.2V64.7z M152.1,63.6
				v-0.9c-0.3-0.2-0.8-0.3-1.3-0.3c-0.7,0-1.3,0.3-1.3,0.9c0,0.6,0.4,0.9,1.2,0.9C151.3,64.3,151.8,64,152.1,63.6z"/>
		</g>
	</g>
	<g>
		<g>
			<path class="st8" d="M155.4,63.9v-3.6h-0.9v-1.1h0.9v-1.9l1.2-0.6v2.5h1.4v1.1h-1.4v3.3c0,0.4,0.1,0.7,0.6,0.7
				c0.3,0,0.6-0.1,0.9-0.3l-0.2,1.1c-0.3,0.2-0.7,0.3-1.2,0.3C155.8,65.4,155.4,64.8,155.4,63.9z"/>
		</g>
	</g>
	<g>
		<g>
			<path class="st8" d="M159.4,57.6c0-0.4,0.3-0.7,0.7-0.7s0.7,0.3,0.7,0.7c0,0.4-0.3,0.7-0.7,0.7S159.4,58,159.4,57.6z M159.5,59.2
				h1.2v6h-1.2V59.2z"/>
		</g>
	</g>
	<g>
		<g>
			<path class="st8" d="M162.3,62.2c0-2,1.1-3.1,2.7-3.1s2.7,1.2,2.7,3.1c0,2-1.1,3.1-2.7,3.1S162.3,64.2,162.3,62.2z M166.6,62.2
				c0-1.2-0.6-2-1.5-2c-0.9,0-1.5,0.8-1.5,2s0.6,2,1.5,2C166,64.2,166.6,63.5,166.6,62.2z"/>
		</g>
	</g>
	<g>
		<g>
			<path class="st8" d="M173.1,61.7c0-1-0.5-1.4-1.2-1.4c-0.7,0-1.3,0.4-1.3,1.4v3.6h-1.2v-6h1.2v0.6c0.4-0.5,0.9-0.7,1.5-0.7
				c1.3,0,2.2,0.7,2.2,2.5v3.6h-1.2V61.7z"/>
		</g>
	</g>
	<g>
		<g>
			<path class="st8" d="M179.5,64.7c-0.3,0.3-0.8,0.7-1.6,0.7c-1.2,0-2.1-0.7-2.1-2c0-1.4,1.1-2,2.3-2c0.5,0,1.1,0.1,1.5,0.4v-0.3
				c0-0.9-0.4-1.2-1.3-1.2c-0.7,0-1.3,0.2-1.7,0.5l-0.4-1c0.5-0.3,1.3-0.6,2.2-0.6c1,0,2.3,0.3,2.3,2.2v3.9h-1.2V64.7z M179.5,63.6
				v-0.9c-0.3-0.2-0.8-0.3-1.3-0.3c-0.7,0-1.3,0.3-1.3,0.9c0,0.6,0.4,0.9,1.2,0.9C178.7,64.3,179.2,64,179.5,63.6z"/>
		</g>
	</g>
	<g>
		<g>
			<path class="st8" d="M182.5,57.3l1.2-0.6v8.4h-1.2V57.3z"/>
		</g>
	</g>
</g>
<g>
	<g>
		<g>
			<path class="st8" d="M121.2,78.1l-3.5-5.6c-0.1-0.2-0.2-0.4-0.3-0.6c0,0.2,0,0.4,0,0.6v5.6h-1.2v-8.2h1.2l3.4,5.5
				c0.1,0.2,0.2,0.4,0.3,0.6c0-0.2,0-0.4,0-0.6v-5.5h1.2v8.2H121.2z"/>
		</g>
	</g>
	<g>
		<g>
			<path class="st8" d="M124.1,75.1c0-2,1.1-3.1,2.7-3.1c1.4,0,2.6,0.9,2.6,2.8c0,0.3,0,0.6,0,0.8h-4c0,1,0.7,1.6,1.5,1.6
				c0.5,0,0.9-0.2,1.2-0.6l0.8,0.8c-0.4,0.5-1.1,0.9-2,0.9C125.1,78.2,124.1,77.1,124.1,75.1z M128.2,74.6c0-1.1-0.7-1.5-1.4-1.5
				c-0.8,0-1.4,0.4-1.5,1.5H128.2z"/>
		</g>
	</g>
	<g>
		<g>
			<path class="st8" d="M131.2,76.7v-3.6h-0.9v-1.1h0.9v-1.9l1.2-0.6v2.5h1.4v1.1h-1.4v3.3c0,0.4,0.1,0.7,0.6,0.7
				c0.3,0,0.6-0.1,0.9-0.3l-0.2,1.1c-0.3,0.2-0.7,0.3-1.2,0.3C131.6,78.2,131.2,77.6,131.2,76.7z"/>
		</g>
	</g>
	<g>
		<g>
			<path class="st8" d="M134.9,72.1h1.2l0.8,3.7c0.1,0.3,0.1,0.4,0.1,0.6c0-0.2,0.1-0.4,0.1-0.6l1-3.7h1.1l1,3.7
				c0.1,0.2,0.1,0.4,0.1,0.6c0-0.2,0.1-0.4,0.1-0.6l0.8-3.7h1.2l-1.6,6h-1.1l-1-3.5c-0.1-0.3-0.2-0.6-0.2-0.7c0,0.2-0.1,0.5-0.2,0.8
				l-1,3.5h-1.1L134.9,72.1z"/>
		</g>
	</g>
	<g>
		<g>
			<path class="st8" d="M143.5,75.1c0-2,1.1-3.1,2.7-3.1c1.7,0,2.7,1.2,2.7,3.1s-1.1,3.1-2.7,3.1C144.6,78.2,143.5,77.1,143.5,75.1z
				 M147.8,75.1c0-1.2-0.6-2-1.5-2c-0.9,0-1.5,0.8-1.5,2s0.6,2,1.5,2C147.2,77.1,147.8,76.3,147.8,75.1z"/>
		</g>
	</g>
	<g>
		<g>
			<path class="st8" d="M150.6,72.1h1.2v0.7c0.3-0.6,0.7-0.9,1.3-0.9c0.4,0,0.7,0.1,1,0.4l-0.2,1.1c-0.2-0.2-0.5-0.3-0.9-0.3
				c-0.5,0-1.2,0.3-1.2,1.6v3.4h-1.2V72.1z"/>
		</g>
	</g>
	<g>
		<g>
			<path class="st8" d="M159,78.1l-1.8-3.4l-0.8,0.8v2.7h-1.2v-7.9l1.2-0.6V74l1.8-1.8h1.5l-1.6,1.7l2.2,4.3H159z"/>
		</g>
	</g>
	<g>
		<g>
			<path class="st8" d="M164.4,75.1c0-2,1.1-3.1,2.7-3.1s2.7,1.2,2.7,3.1s-1.1,3.1-2.7,3.1S164.4,77.1,164.4,75.1z M168.7,75.1
				c0-1.2-0.6-2-1.5-2c-0.9,0-1.5,0.8-1.5,2s0.6,2,1.5,2C168.1,77.1,168.7,76.3,168.7,75.1z"/>
		</g>
	</g>
	<g>
		<g>
			<path class="st8" d="M173.1,78.1h-1.2v-4.9H171v-1.1h0.9v-1c0-1.1,0.7-1.4,1.4-1.4c0.5,0,0.8,0.1,1.2,0.3v1
				c-0.4-0.2-0.6-0.2-0.9-0.2c-0.4,0-0.5,0.2-0.5,0.5v0.7h1.3v1.1h-1.3V78.1z"/>
		</g>
	</g>
</g>
<g>
	<g>
		<g>
			<path class="st8" d="M116.1,82.8h5.1v1.1h-3.9v2.2h2.5v1.1h-2.5v2.5h4.1v1.1h-5.3V82.8z"/>
		</g>
	</g>
	<g>
		<g>
			<path class="st8" d="M126.8,87.4c0-1-0.5-1.4-1.2-1.4c-0.7,0-1.3,0.4-1.3,1.4v3.6h-1.2v-6h1.2v0.6c0.4-0.5,0.9-0.7,1.5-0.7
				c1.3,0,2.2,0.7,2.2,2.5v3.6h-1.2V87.4z"/>
		</g>
	</g>
	<g>
		<g>
			<path class="st8" d="M129.5,87.9c0-2,1.1-3.1,2.7-3.1c1.4,0,2.6,0.9,2.6,2.8c0,0.3,0,0.6,0,0.8h-4c0,1,0.7,1.6,1.5,1.6
				c0.5,0,0.9-0.2,1.2-0.6l0.8,0.8c-0.4,0.5-1.1,0.9-2,0.9C130.6,91.1,129.5,89.9,129.5,87.9z M133.6,87.4c0-1.1-0.7-1.5-1.4-1.5
				c-0.8,0-1.4,0.4-1.5,1.5H133.6z"/>
		</g>
	</g>
	<g>
		<g>
			<path class="st8" d="M136.3,85h1.2v0.7c0.3-0.6,0.7-0.9,1.3-0.9c0.4,0,0.7,0.1,1,0.4l-0.2,1.1c-0.2-0.2-0.5-0.3-0.9-0.3
				c-0.5,0-1.2,0.3-1.2,1.6v3.4h-1.2V85z"/>
		</g>
	</g>
	<g>
		<g>
			<path class="st8" d="M142.5,92.3c1.8-0.1,2.2-0.6,2.2-1.4v-0.5c-0.3,0.4-0.8,0.6-1.4,0.6c-1.4,0-2.5-1.1-2.5-3.1
				c0-2,1-3.1,2.5-3.1c0.7,0,1.2,0.3,1.4,0.6V85h1.2v5.6c0,1.9-1,2.6-2.8,2.7L142.5,92.3z M144.7,89.2v-2.6
				c-0.2-0.4-0.7-0.7-1.2-0.7c-0.9,0-1.5,0.7-1.5,2c0,1.2,0.6,2,1.5,2C144,89.9,144.4,89.7,144.7,89.2z"/>
		</g>
	</g>
	<g>
		<g>
			<path class="st8" d="M149.4,90.8l-2.2-5.9h1.2l1.5,3.9c0.1,0.2,0.1,0.3,0.2,0.5c0-0.2,0.1-0.3,0.2-0.5l1.5-3.9h1.2l-3.2,8.2h-1.2
				L149.4,90.8z"/>
		</g>
	</g>
	<g>
		<g>
			<path class="st8" d="M160.3,90.9h-1.2v-7h-2.3v-1.2h5.8v1.2h-2.3V90.9z"/>
		</g>
	</g>
	<g>
		<g>
			<path class="st8" d="M164.1,85h1.2v0.7c0.3-0.6,0.7-0.9,1.3-0.9c0.4,0,0.7,0.1,1,0.4l-0.2,1.1c-0.2-0.2-0.5-0.3-0.9-0.3
				c-0.5,0-1.2,0.3-1.2,1.6v3.4h-1.2V85z"/>
		</g>
	</g>
	<g>
		<g>
			<path class="st8" d="M172.1,90.4c-0.3,0.3-0.8,0.7-1.6,0.7c-1.2,0-2.1-0.7-2.1-2c0-1.4,1.1-2,2.3-2c0.5,0,1.1,0.1,1.5,0.4v-0.3
				c0-0.9-0.4-1.2-1.3-1.2c-0.7,0-1.3,0.2-1.7,0.5l-0.4-1c0.5-0.3,1.3-0.6,2.2-0.6c1,0,2.3,0.3,2.3,2.2v3.9h-1.2V90.4z M172.1,89.4
				v-0.9c-0.3-0.2-0.8-0.3-1.3-0.3c-0.7,0-1.3,0.3-1.3,0.9c0,0.6,0.4,0.9,1.2,0.9C171.3,90,171.7,89.7,172.1,89.4z"/>
		</g>
	</g>
	<g>
		<g>
			<path class="st8" d="M178.7,87.4c0-1-0.5-1.4-1.2-1.4c-0.7,0-1.3,0.4-1.3,1.4v3.6H175v-6h1.2v0.6c0.4-0.5,0.9-0.7,1.5-0.7
				c1.3,0,2.2,0.7,2.2,2.5v3.6h-1.2V87.4z"/>
		</g>
	</g>
	<g>
		<g>
			<path class="st8" d="M181.3,90.1l0.9-0.7c0.2,0.2,0.7,0.6,1.4,0.6c0.6,0,1.1-0.2,1.1-0.6c0-0.5-0.6-0.7-1.2-0.9
				c-1.3-0.4-1.9-1-1.9-1.9c0-1.1,0.9-1.6,2.1-1.6c1,0,1.7,0.4,2.1,0.9l-0.9,0.7c-0.2-0.2-0.6-0.5-1.2-0.5c-0.5,0-0.8,0.2-0.8,0.5
				c0,0.4,0.5,0.6,1.2,0.8c1.3,0.4,2,0.9,2,2c0,1.1-0.9,1.7-2.2,1.7C182.6,91.1,181.7,90.7,181.3,90.1z"/>
		</g>
	</g>
	<g>
		<g>
			<path class="st8" d="M187.3,83.3c0-0.4,0.3-0.7,0.7-0.7s0.7,0.3,0.7,0.7c0,0.4-0.3,0.7-0.7,0.7S187.3,83.7,187.3,83.3z M187.4,85
				h1.2v6h-1.2V85z"/>
		</g>
	</g>
	<g>
		<g>
			<path class="st8" d="M190.9,89.6V86H190V85h0.9v-1.9l1.2-0.6V85h1.4V86h-1.4v3.3c0,0.4,0.1,0.7,0.6,0.7c0.3,0,0.6-0.1,0.9-0.3
				l-0.2,1.1c-0.3,0.2-0.7,0.3-1.2,0.3C191.3,91.1,190.9,90.5,190.9,89.6z"/>
		</g>
	</g>
	<g>
		<g>
			<path class="st8" d="M194.9,83.3c0-0.4,0.3-0.7,0.7-0.7c0.4,0,0.7,0.3,0.7,0.7c0,0.4-0.3,0.7-0.7,0.7
				C195.3,84,194.9,83.7,194.9,83.3z M195.1,85h1.2v6h-1.2V85z"/>
		</g>
	</g>
	<g>
		<g>
			<path class="st8" d="M197.8,88c0-2,1.1-3.1,2.7-3.1c1.7,0,2.7,1.2,2.7,3.1s-1.1,3.1-2.7,3.1C198.9,91.1,197.8,89.9,197.8,88z
				 M202.1,88c0-1.2-0.6-2-1.5-2c-0.9,0-1.5,0.8-1.5,2s0.6,2,1.5,2C201.5,89.9,202.1,89.2,202.1,88z"/>
		</g>
	</g>
	<g>
		<g>
			<path class="st8" d="M208.6,87.4c0-1-0.5-1.4-1.2-1.4c-0.7,0-1.3,0.4-1.3,1.4v3.6h-1.2v-6h1.2v0.6c0.4-0.5,0.9-0.7,1.5-0.7
				c1.3,0,2.2,0.7,2.2,2.5v3.6h-1.2V87.4z"/>
		</g>
	</g>
</g>
<g>
	<g>
		<g>
			<path class="st8" d="M119.1,103.8h-1.2v-7h-2.3v-1.2h5.8v1.2h-2.3V103.8z"/>
		</g>
	</g>
	<g>
		<g>
			<path class="st8" d="M123,95.9l1.2-0.6v3c0.4-0.5,0.9-0.7,1.5-0.7c1.3,0,2.2,0.7,2.2,2.5v3.6h-1.2v-3.6c0-1-0.5-1.4-1.2-1.4
				c-0.7,0-1.3,0.4-1.3,1.4v3.6H123V95.9z"/>
		</g>
	</g>
	<g>
		<g>
			<path class="st8" d="M129.6,96.2c0-0.4,0.3-0.7,0.7-0.7c0.4,0,0.7,0.3,0.7,0.7c0,0.4-0.3,0.7-0.7,0.7
				C129.9,96.9,129.6,96.6,129.6,96.2z M129.7,97.8h1.2v6h-1.2V97.8z"/>
		</g>
	</g>
	<g>
		<g>
			<path class="st8" d="M136.5,100.2c0-1-0.5-1.4-1.2-1.4c-0.7,0-1.3,0.4-1.3,1.4v3.6h-1.2v-6h1.2v0.6c0.4-0.5,0.9-0.7,1.5-0.7
				c1.3,0,2.2,0.7,2.2,2.5v3.6h-1.2V100.2z"/>
		</g>
	</g>
	<g>
		<g>
			<path class="st8" d="M143.3,103.8l-1.8-3.4l-0.8,0.8v2.7h-1.2v-7.9l1.2-0.6v4.3l1.8-1.8h1.5l-1.6,1.7l2.2,4.3H143.3z"/>
		</g>
	</g>
	<g>
		<g>
			<path class="st8" d="M152.2,103.8H151v-7h-2.3v-1.2h5.8v1.2h-2.3V103.8z"/>
		</g>
	</g>
	<g>
		<g>
			<path class="st8" d="M158.7,103.3c-0.3,0.3-0.8,0.7-1.6,0.7c-1.2,0-2.1-0.7-2.1-2c0-1.4,1.1-2,2.3-2c0.5,0,1.1,0.1,1.5,0.4V100
				c0-0.9-0.4-1.2-1.3-1.2c-0.7,0-1.3,0.2-1.7,0.5l-0.4-1c0.5-0.3,1.3-0.6,2.2-0.6c1,0,2.3,0.3,2.3,2.2v3.9h-1.2V103.3z
				 M158.7,102.2v-0.9c-0.3-0.2-0.8-0.3-1.3-0.3c-0.7,0-1.3,0.3-1.3,0.9c0,0.6,0.4,0.9,1.2,0.9C157.9,102.9,158.4,102.6,158.7,102.2
				z"/>
		</g>
	</g>
	<g>
		<g>
			<path class="st8" d="M165.3,100.2c0-1-0.5-1.4-1.2-1.4c-0.7,0-1.3,0.4-1.3,1.4v3.6h-1.2v-6h1.2v0.6c0.4-0.5,0.9-0.7,1.5-0.7
				c1.3,0,2.2,0.7,2.2,2.5v3.6h-1.2V100.2z"/>
		</g>
	</g>
	<g>
		<g>
			<path class="st8" d="M172.1,103.8l-1.8-3.4l-0.8,0.8v2.7h-1.2v-7.9l1.2-0.6v4.3l1.8-1.8h1.5l-1.6,1.7l2.2,4.3H172.1z"/>
		</g>
	</g>
	<g>
		<g>
			<path class="st8" d="M174.5,103l0.9-0.7c0.2,0.2,0.7,0.6,1.4,0.6c0.6,0,1.1-0.2,1.1-0.6c0-0.5-0.6-0.7-1.2-0.9
				c-1.3-0.4-1.9-1-1.9-1.9c0-1.1,0.9-1.6,2.1-1.6c1,0,1.7,0.4,2.1,0.9l-0.9,0.7c-0.2-0.2-0.6-0.5-1.2-0.5c-0.5,0-0.8,0.2-0.8,0.5
				c0,0.4,0.5,0.6,1.2,0.8c1.3,0.4,2,0.9,2,2c0,1.1-0.9,1.7-2.2,1.7C175.8,103.9,174.9,103.6,174.5,103z"/>
		</g>
	</g>
</g>
</svg>
