<?xml version="1.0" encoding="UTF-8"?>
<svg id="Subline_neu" data-name="Subline neu" xmlns="http://www.w3.org/2000/svg" viewBox="0 0 340.16 58.08">
  <g>
    <path d="M8.13,46.53H0V6.23c3.48-.65,8.25-1.13,13.06-1.13,8.94,0,16.13,1.81,16.13,13.02s-6.48,13.25-15.69,13.25c-1.76,0-3.81-.09-5.36-.19v15.35ZM8.13,24.6c1.65.21,3.29.23,4.96.23,5.13,0,8.01-1.36,8.01-6.71,0-4.66-1.91-6.51-7.84-6.51-1.62,0-3.48.12-5.13.35v12.64Z" style="fill: #b50924;"/>
    <path d="M53.38,15.19h7.79l-14.28,42.89h-7.79l4.82-13.75-12.34-29.14h8.11l7.68,19.34,6-19.34Z" style="fill: #b50924;"/>
    <path d="M75.82,46.53h-8.13V6.23c3.48-.65,8.25-1.13,13.06-1.13,8.94,0,16.13,1.81,16.13,13.02s-6.48,13.25-15.69,13.25c-1.76,0-3.81-.09-5.36-.19v15.35ZM75.82,24.6c1.65.21,3.29.23,4.96.23,5.13,0,8.01-1.36,8.01-6.71,0-4.66-1.91-6.51-7.84-6.51-1.62,0-3.48.12-5.13.35v12.64Z" style="fill: #b50924;"/>
    <path d="M110.54,16.12c0,4.12,2.76,4.68,7.37,5.95,7.68,2.13,10.99,5.16,10.99,12.58,0,9.05-5.39,12.3-14.9,12.3-4.51,0-8.32-.55-11.59-1.27l.79-6.56c2.95.44,7.43.91,10.51.91,4.22,0,6.81-.97,6.81-5.09,0-3.82-2.95-4.68-6.67-5.84-7.2-2.25-11.44-4.52-11.44-12.27,0-8.89,5.13-11.74,14.37-11.74,4.26,0,8.63.65,11.49,1.28l-.74,6.39c-2.6-.42-5.84-.9-8.84-.9-3.24,0-8.15.14-8.15,4.24Z" style="fill: #b50924;"/>
    <path d="M132.47,46.53l11.94-35.71c1.34-4.01,3.52-5.72,6.6-5.72s5.26,1.81,6.55,5.72l11.73,35.71h-8.65l-3.07-10.15h-13.7l-3,10.15h-8.41ZM155.66,29.99l-5-16.58-4.91,16.58h9.91Z" style="fill: #b50924;"/>
    <path d="M183.47,16.12c0,4.12,2.76,4.68,7.37,5.95,7.68,2.13,10.99,5.16,10.99,12.58,0,9.05-5.39,12.3-14.9,12.3-4.51,0-8.32-.55-11.59-1.27l.79-6.56c2.95.44,7.43.91,10.51.91,4.22,0,6.8-.97,6.8-5.09,0-3.82-2.95-4.68-6.67-5.84-7.2-2.25-11.44-4.52-11.44-12.27,0-8.89,5.13-11.74,14.37-11.74,4.26,0,8.63.65,11.49,1.28l-.74,6.39c-2.6-.42-5.84-.9-8.84-.9-3.24,0-8.15.14-8.15,4.24Z" style="fill: #fff;"/>
    <path d="M216.88,46.53h-8.13V6.23c3.48-.65,8.25-1.13,13.06-1.13,8.94,0,16.13,1.81,16.13,13.02s-6.48,13.25-15.69,13.25c-1.76,0-3.81-.09-5.36-.19v15.35ZM216.88,24.6c1.65.21,3.29.23,4.96.23,5.13,0,8.01-1.36,8.01-6.71,0-4.66-1.91-6.51-7.84-6.51-1.62,0-3.48.12-5.13.35v12.64Z" style="fill: #fff;"/>
    <path d="M244.24,5.53h8.17v41h-8.17V5.53Z" style="fill: #fff;"/>
    <path d="M340.16,12.18h-11.08c-4.81,0-5.63,1.02-5.63,5.54v4.65h15.95v6.62h-15.95v5.31c0,4.54.83,5.58,5.63,5.58h11.08v6.44c-2.83.14-8.22.32-10.91.32-7.25,0-13.94-.4-13.94-10.01V15.42c0-9.61,6.68-10,13.94-10,2.91,0,8.13.16,10.91.3v6.46Z" style="fill: #fff;"/>
  </g>
  <g>
    <path d="M307.72,24.61c-.59-1.71-3.1-1.37-3.22.45-.19,2.97-.85,5.68-2.13,8.25-1.64,3.27-4.22,6.07-7.37,7.78-6.04,3.45-13.82,2.31-18.38-2.95-2.36-2.73-3.65-6.38-3.48-10,.05-.82.15-1.81.37-2.6.07-.25.21-.75.27-1.01,1.91-6.16,8.13-10.1,14.35-9.15.84.09,1.61.06,2.33-.06.91-.72,1.47-1.79,1.42-2.96-.12-2.66-2.73-3.46-2.73-3.46,0,0,3.35-2.07,2.16-5.47-.82-2.35-4.03-3.25-5.32-3.42.64-.01,1.29,0,1.94.03-16.68-.9-30.5,14.17-27.85,31.41,1.79,11.59,11.01,20.82,22.46,22.09,7.72.9,15.86-2.08,20.91-8.16,4.78-5.55,6.69-13.99,4.27-20.78ZM263.03,30.9s-.2,0-.2,0c-2.1-7.04.19-15.16,5.25-20.33,1.7-1.72,3.73-3.2,6.08-3.81l.1.17c-7.63,5.12-11.34,14.86-11.23,23.96ZM305.27,29.47c-.3-.03-.51-.3-.48-.6s.29-.52.59-.49.51.3.48.6-.29.52-.59.49ZM306.64,26.28c-.08.84-.48,1.48-.89,1.44-.41-.04-.68-.75-.6-1.59.08-.84.48-1.48.89-1.44.41.04.68.75.6,1.59Z" style="fill: #b50924;"/>
    <path d="M274.16,6.77c-2.34.61-4.38,2.09-6.08,3.81-5.06,5.16-7.35,13.28-5.25,20.33,0,0,.2,0,.2,0-.11-9.1,3.6-18.83,11.23-23.96l-.1-.17Z" style="fill: #dc8b98;"/>
    <path d="M306.05,24.69c-.41-.04-.81.6-.89,1.44-.08.84.19,1.55.6,1.59.41.04.81-.6.89-1.44s-.19-1.55-.6-1.59Z" style="fill: #dc8b98;"/>
    <path d="M305.37,28.38c-.3-.03-.56.19-.59.49s.19.57.48.6c.3.03.56-.19.59-.49s-.19-.57-.48-.6Z" style="fill: #dc8b98;"/>
  </g>
  <path d="M291.31,3.43c1.19,3.4-2.16,5.47-2.16,5.47,0,0,2.61.79,2.73,3.46.05,1.17-.52,2.24-1.42,2.96h0c3.04-.49,5.03-2.63,5.8-5.15v.03s0,.11,0,.11c0,0,.91-1.01,3.15-.76,2.72.3,4.76-.57,6.45-2.2-.53-.79-.9-1.35-.9-1.35,0,0-2.49,1.82-5.18,1.8-2.69-.02-3.56-2.59-3.56-2.59h0s0,0,0,0c-.09-.28-.21-.56-.33-.83,0-.02-.01-.03-.02-.05-.26-.54-.59-1.05-.99-1.52-.03-.04-.07-.07-.1-.11-.17-.19-.35-.37-.54-.54-.05-.04-.09-.09-.14-.13-.46-.39-.99-.74-1.58-1.03-.08-.04-.17-.08-.25-.11-.23-.1-.46-.19-.7-.28-.1-.03-.19-.07-.29-.1-.33-.1-.68-.19-1.05-.26,0,0,0,0,0,0,0,0,0,0,0,0-.68-.1-1.36-.16-2.03-.2-.08,0-.16,0-.24-.01-.65-.03-1.3-.05-1.94-.03,1.29.17,4.49,1.08,5.32,3.42Z" style="fill: #348700;"/>
</svg>